<svg xmlns="http://www.w3.org/2000/svg" style="display: none;">
  <symbol id="gear-icon" viewBox="0 0 24 24">
    <path fill="currentColor" d="M12 15.5a3.5 3.5 0 1 0 0-7 3.5 3.5 0 0 0 0 7zm7.43-2.5c0-.34.02-.67.05-1l2.11-1.65a.5.5 0 0 0 .12-.64l-2-3.46a.5.5 0 0 0-.61-.2l-2.49 1a7.08 7.08 0 0 0-1.7-.99l-.38-2.65a.5.5 0 0 0-.5-.43h-4a.5.5 0 0 0-.5.43l-.38 2.65c-.63.23-1.21.56-1.7.99l-2.49-1a.5.5 0 0 0-.61.2l-2 3.46a.5.5 0 0 0 .12.64l2.11 1.65c-.03.33-.05.66-.05 1s.02.67.05 1l-2.11 1.65a.5.5 0 0 0-.12.64l2 3.46c.14.24.43.33.67.2l2.49-1c.49.43 1.07.76 1.7.99l.38 2.65c.05.26.27.43.5.43h4c.23 0 .45-.17.5-.43l.38-2.65c.63-.23 1.21-.56 1.7-.99l2.49 1c.24.13.53.04.67-.2l2-3.46a.5.5 0 0 0-.12-.64l-2.11-1.65c.03-.33.05-.66.05-1z"/>
  </symbol>
</svg>