<svg xmlns="http://www.w3.org/2000/svg" style="display:none">

<symbol id="gear-icon" viewBox="0 0 24 24">
  <path fill="currentColor" d="
M19.14 12.94
c.04-.31.06-.63.06-.94
s-.02-.63-.06-.94
l2.03-1.58
a.5.5 0 0 0 .12-.64
l-1.92-3.32
a.5.5 0 0 0-.6-.22
l-2.39.96
a7.28 7.28 0 0 0-1.63-.94
l-.36-2.54
A.5.5 0 0 0 13.9 2h-3.8
a.5.5 0 0 0-.49.42
l-.36 2.54
c-.58.23-1.12.54-1.63.94
l-2.39-.96
a.5.5 0 0 0-.6.22
L2.71 8.48
a.5.5 0 0 0 .12.64
l2.03 1.58
c-.04.31-.06.63-.06.94
s.02.63.06.94
l-2.03 1.58
a.5.5 0 0 0-.12.64
l1.92 3.32
a.5.5 0 0 0 .6.22
l2.39-.96
c.51.4 1.05.71 1.63.94
l.36 2.54
a.5.5 0 0 0 .49.42h3.8
a.5.5 0 0 0 .49-.42
l.36-2.54
c.58-.23 1.12-.54 1.63-.94
l2.39.96
a.5.5 0 0 0 .6-.22
l1.92-3.32
a.5.5 0 0 0-.12-.64
l-2.03-1.58z

M12 15.5
A3.5 3.5 0 1 1 12 8.5
a3.5 3.5 0 0 1 0 7z
"/>
</symbol>

</svg>